<svg xmlns="http://www.w3.org/2000/svg" pointer-events="none" stroke-width="1" stroke-dasharray="none" fill="black" stroke="black" shadowColor="black" font-family="Bravura,Academico" font-size="10pt" font-weight="normal" font-style="normal" width="140" height="100" viewBox="0 0 140 100" style="width: 140px; height: 100px;"><g class="vf-stave" id="vf-auto1110" stroke="#999999"><path fill="none" d="M0 40.5L140 40.5"></path><path fill="none" d="M0 50.5L140 50.5"></path><path fill="none" d="M0 60.5L140 60.5"></path><path fill="none" d="M0 70.5L140 70.5"></path><path fill="none" d="M0 80.5L140 80.5"></path></g><g class="vf-stavebarline" id="vf-auto1111" stroke="#999999"></g><g class="vf-stavebarline" id="vf-auto1112" stroke="#999999"><rect x="140" y="40" width="1" height="41" stroke="none"></rect></g><g class="vf-stavenote" id="vf-auto1091"><g class="vf-notehead" id="vf-auto1096"><text stroke="none" font-size="30pt" x="17" y="60"></text></g><rect x="17" y="25.36" width="11.8" height="39.64" opacity="0" pointer-events="auto"></rect></g><g class="vf-stavenote" id="vf-auto1097"><g class="vf-notehead" id="vf-auto1102"><text stroke="none" font-size="30pt" x="59.422" y="60"></text></g><rect x="59.422" y="25.36" width="11.8" height="39.64" opacity="0" pointer-events="auto"></rect></g><g class="vf-stavenote" id="vf-auto1103"><g class="vf-notehead" id="vf-auto1108"><text stroke="none" font-size="30pt" x="101.844" y="60"></text></g><rect x="101.844" y="25.36" width="11.8" height="39.64" opacity="0" pointer-events="auto"></rect></g><g class="vf-beam" id="vf-auto1113"><g class="vf-stem" id="vf-auto1093"><path stroke-width="1.5" fill="none" d="M28.05 60L28.05 25.75"></path></g><g class="vf-stem" id="vf-auto1099"><path stroke-width="1.5" fill="none" d="M70.472 60L70.472 25.75"></path></g><g class="vf-stem" id="vf-auto1105"><path stroke-width="1.5" fill="none" d="M112.894 60L112.894 25.75"></path></g><path stroke="none" d="M27.3 25L27.3 30L113.144 30L113.144 25Z"></path></g><g class="vf-tuplet" id="vf-auto1114"><text stroke="none" font-size="30pt" x="64.552" y="20.66"></text><rect width="84.844" opacity="0" pointer-events="auto"></rect></g></svg>