<svg pointer-events="none" stroke-width="1" stroke-dasharray="none" fill="black" stroke="black" shadowColor="black" font-family="Bravura,Academico" font-size="10pt" font-weight="normal" font-style="normal" width="140" height="100" viewBox="0 0 140 100" xmlns="http://www.w3.org/2000/svg"><g class="vf-stave" id="vf-auto1074"><path fill="none" d="M0 40.5L140 40.5"></path><path fill="none" d="M0 50.5L140 50.5"></path><path fill="none" d="M0 60.5L140 60.5"></path><path fill="none" d="M0 70.5L140 70.5"></path><path fill="none" d="M0 80.5L140 80.5"></path></g><g class="vf-stavebarline" id="vf-auto1075"><rect y="40" width="1" height="41" stroke="none"></rect></g><g class="vf-stavebarline" id="vf-auto1076"><rect x="140" y="40" width="1" height="41" stroke="none"></rect></g><g class="vf-stavenote" id="vf-auto1077"><g class="vf-notehead" id="vf-auto1081"><text stroke="none" font-size="30pt" x="17" y="60"></text></g><rect x="17" y="40.76" width="15.48" height="28.8" opacity="0" pointer-events="auto"></rect></g><g class="vf-stavenote" id="vf-auto1082"><g class="vf-notehead" id="vf-auto1086"><text stroke="none" font-size="30pt" x="49.961" y="60"></text></g><rect x="49.961" y="40.76" width="15.48" height="28.8" opacity="0" pointer-events="auto"></rect></g><g class="vf-stavenote" id="vf-auto1087"><g class="vf-notehead" id="vf-auto1091"><text stroke="none" font-size="30pt" x="82.922" y="60"></text></g><rect x="82.922" y="40.76" width="15.48" height="28.8" opacity="0" pointer-events="auto"></rect></g><g class="vf-beam" id="vf-auto1093"><g class="vf-stem" id="vf-auto1079"><path stroke-width="1.5" fill="none" d="M31.73 60L31.73 25.75"></path></g><g class="vf-stem" id="vf-auto1084"><path stroke-width="1.5" fill="none" d="M64.691 60L64.691 25.75"></path></g><g class="vf-stem" id="vf-auto1089"><path stroke-width="1.5" fill="none" d="M97.652 60L97.652 25.75"></path></g><path stroke="none" d="M30.98 25L30.98 30L97.902 30L97.902 25Z"></path></g><g class="vf-tuplet" id="vf-auto1094"><text stroke="none" font-size="30pt" x="50.191" y="30.5"></text><rect width="65.922" opacity="0" pointer-events="auto"></rect></g></svg>