<svg width="836" height="220" viewBox="0 0 836 220" fill="none" xmlns="http://www.w3.org/2000/svg">
<path fill-rule="evenodd" clip-rule="evenodd" d="M223.009 86.2936C221.731 88.0188 219.831 90.6494 217.061 94.6118C212.893 100.577 207.853 106.05 203.692 109.615V109.618C197.648 114.157 190.139 116.846 181.999 116.846C173.859 116.846 166.351 114.157 160.307 109.618V109.615C156.146 106.05 151.106 100.577 146.938 94.6118C144.168 90.6494 142.268 88.0192 140.989 86.2936C129.188 69.7716 109.851 59 88 59V73.4615C105.202 73.4615 120.43 82.0408 129.577 95.1538C130.346 96.1865 131.29 97.5662 132.364 99.1352L132.364 99.1353L132.364 99.1356L132.364 99.1357C134.235 101.87 136.5 105.179 138.916 108.23C142.561 112.83 145.893 116.163 145.893 116.163C145.893 116.163 145.896 116.162 145.896 116.162C155.08 125.508 167.863 131.308 181.999 131.308C196.136 131.308 208.918 125.508 218.103 116.162C218.103 116.162 218.106 116.163 218.106 116.163C218.106 116.163 221.438 112.829 225.082 108.23C227.499 105.179 229.764 101.869 231.635 99.1352C232.709 97.5661 233.653 96.1865 234.422 95.1538C243.569 82.0408 258.797 73.4615 275.999 73.4615V59C254.148 59 234.811 69.7716 223.009 86.2936ZM236.809 115.803C240.155 110.964 244.549 104.609 249.323 99.6797C255.933 92.4558 265.436 87.9228 276 87.9225V102.384C269.575 102.384 263.801 105.177 259.832 109.615C259.832 109.615 257.14 112.647 254.85 116.162C252.56 119.677 244.335 131.218 238.843 136.326H238.843C224.405 151.076 204.271 160.23 182 160.23C159.729 160.23 139.595 151.076 125.157 136.326H125.157C119.665 131.218 111.44 119.677 109.15 116.162C106.86 112.647 104.168 109.615 104.168 109.615C100.198 105.177 94.4245 102.384 88 102.384V87.9225C98.5649 87.9225 108.068 92.4558 114.678 99.6797C119.452 104.61 123.847 110.966 127.193 115.805L127.193 115.805L127.195 115.808C127.759 116.623 128.293 117.396 128.794 118.111C131.296 121.683 133.493 124.076 133.493 124.076C145.409 137.39 162.726 145.768 182 145.768C201.274 145.768 218.591 137.39 230.508 124.076C230.508 124.076 232.704 121.683 235.207 118.111C235.709 117.394 236.244 116.62 236.809 115.803ZM272.913 117.542C272.929 117.532 272.946 117.523 272.963 117.514L272.964 117.521C273.888 117.092 274.914 116.846 276 116.846V131.308H261.223C261.728 130.49 263.136 128.453 264.805 126.21C265.161 125.731 265.521 125.227 265.89 124.711C267.543 122.4 269.366 119.85 271.767 118.222C272.112 117.972 272.48 117.754 272.867 117.567C272.874 117.563 272.882 117.559 272.889 117.555L272.913 117.542ZM91.1338 117.567C91.5207 117.754 91.8884 117.972 92.2333 118.222C94.6335 119.849 96.4566 122.398 98.1091 124.709C98.4784 125.225 98.8393 125.73 99.1961 126.209C100.865 128.453 102.272 130.49 102.778 131.307H88.0007V116.845C89.0864 116.845 90.1125 117.091 91.0366 117.52L91.0377 117.514C91.0551 117.523 91.072 117.532 91.0888 117.542C91.1037 117.55 91.1186 117.559 91.1338 117.567ZM114.174 145.769H88.0004V160.231H131.892C125.408 156.137 119.458 151.275 114.174 145.769ZM276 160.231H232.109C238.592 156.137 244.542 151.275 249.826 145.769H276V160.231Z" fill="#00DAE8"/>
<path d="M555.348 124.792C556.163 132.479 563.088 145.658 583.195 145.658C600.716 145.658 609.136 134.401 609.136 123.419C609.136 113.535 602.484 105.436 589.305 102.69L579.798 100.631C576.129 99.945 573.685 97.8862 573.685 94.5917C573.685 90.7475 577.487 87.8645 582.242 87.8645C587.744 87.8645 590.759 90.5224 592.213 93.4998H608.294L608.322 93.4927C607.508 86.2172 601.125 74 582.104 74C567.709 74 557.112 84.021 557.112 96.1011C557.112 105.574 562.953 113.398 575.858 116.281L584.687 118.34C589.848 119.438 591.887 121.909 591.887 124.929C591.887 128.498 589.033 131.656 583.058 131.656C576.913 131.656 573.165 128.651 571.618 124.788H555.365L555.348 124.792Z" fill="white"/>
<path fill-rule="evenodd" clip-rule="evenodd" d="M665.422 124.788C662.785 128.002 658.796 130.009 653.013 130.009C644.046 130.009 636.574 123.556 636.169 114.633H683.981C683.981 114.585 683.991 114.462 684.005 114.277L684.023 114.025L684.024 114.019L684.024 114.016C684.1 113.011 684.253 110.969 684.253 109.005C684.253 87.3155 671.893 74 651.246 74C634.13 74 618.373 88.0019 618.373 109.554C618.373 132.342 634.54 145.658 652.875 145.658C669.056 145.658 679.577 136.213 683.14 124.788H665.422ZM636.574 102.142C636.984 95.9644 642.145 88.8261 651.517 88.8261C661.843 88.8261 666.189 95.4151 666.46 102.142H636.574Z" fill="white"/>
<path d="M694.226 124.789H710.482C712.026 128.651 715.773 131.656 721.917 131.657C727.897 131.657 730.747 128.499 730.747 124.93C730.747 121.91 728.711 119.439 723.547 118.341L714.718 116.282C701.813 113.399 695.972 105.574 695.972 96.1019C695.972 84.0218 706.569 74.0008 720.969 74.0008C739.986 74.0008 746.37 86.218 747.185 93.4934L747.154 93.5006H731.073C729.622 90.5231 726.607 87.8652 721.103 87.8652C716.351 87.8652 712.545 90.7482 712.545 94.5924C712.545 97.8869 714.989 99.9458 718.658 100.632L728.168 102.691C741.344 105.437 748 113.536 748 123.42C748 134.402 739.576 145.659 722.055 145.659C701.951 145.659 695.023 132.48 694.208 124.793L694.226 124.789Z" fill="white"/>
<path d="M541.709 74.0008H523.644V145.658H541.709V74.0008Z" fill="white"/>
<path fill-rule="evenodd" clip-rule="evenodd" d="M474.336 74.0008C454.369 74.0008 439.289 88.9639 439.289 109.829C439.289 130.558 454.369 145.658 474.336 145.658C494.305 145.658 509.381 130.558 509.381 109.829C509.381 88.9635 494.305 74.0008 474.336 74.0008ZM474.336 129.047C465.506 129.047 457.357 122.459 457.357 109.829C457.357 97.0628 465.506 90.6108 474.336 90.6108C483.165 90.6108 491.317 97.0624 491.317 109.829C491.317 122.596 483.165 129.047 474.336 129.047Z" fill="white"/>
<path d="M342.064 104.063V145.564H324V76.059H333.015C337.564 76.059 341.25 79.7468 341.25 84.2956C344.919 77.7062 353.477 74.1372 360.811 74.1372C369.911 74.1372 377.249 78.1181 380.646 85.3939C385.941 77.1572 393.006 74.1372 401.836 74.1372C414.196 74.1372 426.014 81.6875 426.014 99.8077V145.564H408.493V103.514C408.493 96.2391 404.958 90.748 396.672 90.748C388.929 90.748 384.311 96.788 384.311 104.063V145.564H366.38V103.514C366.38 96.2391 362.715 90.748 354.563 90.748C346.686 90.748 342.064 96.6506 342.064 104.063Z" fill="white"/>
</svg>
